<svg xmlns="http://www.w3.org/2000/svg" viewBox="0 0 831 121" width="831" height="121" role="img" aria-label="CivCentral (for dark backgrounds)">
  <title>CivCentral (for dark backgrounds)</title>
  <defs>
    <linearGradient id="bw-ga" gradientUnits="userSpaceOnUse" x1="0" y1="0" x2="0" y2="100"><stop offset="0" stop-color="#86EFAC"/><stop offset="1" stop-color="#10B981"/></linearGradient>
    <linearGradient id="bw-gb" gradientUnits="userSpaceOnUse" x1="0" y1="0" x2="0" y2="100"><stop offset="0" stop-color="#FFFFFF"/><stop offset="1" stop-color="#C7D2CB"/></linearGradient>
  </defs>
  <g transform="translate(5 5) scale(1)">
    <clipPath id="bw-ct"><rect x="-4" y="0" width="829" height="111"/></clipPath>
    <clipPath id="bw-cc"><rect x="-4" y="0" width="829" height="100"/></clipPath>
    <g clip-path="url(#bw-ct)"><path d="M65 11 L27 11 L11 27 L11 73 L27 89 L65 89" transform="translate(0 11)" stroke="#047857" stroke-width="22" fill="none" stroke-linecap="butt" stroke-linejoin="miter" stroke-miterlimit="10"/><path d="M11 0 L11 100" transform="translate(92 11)" stroke="#047857" stroke-width="22" fill="none" stroke-linecap="butt" stroke-linejoin="miter" stroke-miterlimit="10"/><path d="M5.2 -19.1 L38 89 L70.8 -19.1" transform="translate(130 11)" stroke="#047857" stroke-width="22" fill="none" stroke-linecap="butt" stroke-linejoin="miter" stroke-miterlimit="10"/><path d="M65 11 L27 11 L11 27 L11 73 L27 89 L65 89" transform="translate(214 11)" stroke="#047857" stroke-width="22" fill="none" stroke-linecap="butt" stroke-linejoin="miter" stroke-miterlimit="10"/><path d="M63 11 L11 11 L11 89 L63 89 M11 50 L54 50" transform="translate(303 11)" stroke="#047857" stroke-width="22" fill="none" stroke-linecap="butt" stroke-linejoin="miter" stroke-miterlimit="10"/><path d="M11 0 L11 100 M11 0 L67 100 M67 0 L67 100" transform="translate(391 11)" stroke="#047857" stroke-width="22" fill="none" stroke-linecap="butt" stroke-linejoin="miter" stroke-miterlimit="10"/><path d="M4 11 L72 11 M38 11 L38 100" transform="translate(481 11)" stroke="#047857" stroke-width="22" fill="none" stroke-linecap="butt" stroke-linejoin="miter" stroke-miterlimit="10"/><path d="M11 100 L11 11 L40 11 L56 27 L56 39 L40 55 L11 55 M36 55 L69.4 117.6" transform="translate(565 11)" stroke="#047857" stroke-width="22" fill="none" stroke-linecap="butt" stroke-linejoin="miter" stroke-miterlimit="10"/><path d="M4.73 119 L44 0 L83.27 119 M25 76 L63 76" transform="translate(649 11)" stroke="#047857" stroke-width="22" fill="none" stroke-linecap="butt" stroke-linejoin="miter" stroke-miterlimit="10"/><path d="M11 0 L11 89 L59 89" transform="translate(751 11)" stroke="#047857" stroke-width="22" fill="none" stroke-linecap="butt" stroke-linejoin="miter" stroke-miterlimit="10"/></g>
    <g clip-path="url(#bw-cc)"><path d="M65 11 L27 11 L11 27 L11 73 L27 89 L65 89" transform="translate(0 0)" stroke="url(#bw-ga)" stroke-width="22" fill="none" stroke-linecap="butt" stroke-linejoin="miter" stroke-miterlimit="10"/><path d="M11 0 L11 100" transform="translate(92 0)" stroke="url(#bw-ga)" stroke-width="22" fill="none" stroke-linecap="butt" stroke-linejoin="miter" stroke-miterlimit="10"/><path d="M5.2 -19.1 L38 89 L70.8 -19.1" transform="translate(130 0)" stroke="url(#bw-ga)" stroke-width="22" fill="none" stroke-linecap="butt" stroke-linejoin="miter" stroke-miterlimit="10"/><path d="M65 11 L27 11 L11 27 L11 73 L27 89 L65 89" transform="translate(214 0)" stroke="url(#bw-gb)" stroke-width="22" fill="none" stroke-linecap="butt" stroke-linejoin="miter" stroke-miterlimit="10"/><path d="M63 11 L11 11 L11 89 L63 89 M11 50 L54 50" transform="translate(303 0)" stroke="url(#bw-gb)" stroke-width="22" fill="none" stroke-linecap="butt" stroke-linejoin="miter" stroke-miterlimit="10"/><path d="M11 0 L11 100 M11 0 L67 100 M67 0 L67 100" transform="translate(391 0)" stroke="url(#bw-gb)" stroke-width="22" fill="none" stroke-linecap="butt" stroke-linejoin="miter" stroke-miterlimit="10"/><path d="M4 11 L72 11 M38 11 L38 100" transform="translate(481 0)" stroke="url(#bw-gb)" stroke-width="22" fill="none" stroke-linecap="butt" stroke-linejoin="miter" stroke-miterlimit="10"/><path d="M11 100 L11 11 L40 11 L56 27 L56 39 L40 55 L11 55 M36 55 L69.4 117.6" transform="translate(565 0)" stroke="url(#bw-gb)" stroke-width="22" fill="none" stroke-linecap="butt" stroke-linejoin="miter" stroke-miterlimit="10"/><path d="M4.73 119 L44 0 L83.27 119 M25 76 L63 76" transform="translate(649 0)" stroke="url(#bw-gb)" stroke-width="22" fill="none" stroke-linecap="butt" stroke-linejoin="miter" stroke-miterlimit="10"/><path d="M11 0 L11 89 L59 89" transform="translate(751 0)" stroke="url(#bw-gb)" stroke-width="22" fill="none" stroke-linecap="butt" stroke-linejoin="miter" stroke-miterlimit="10"/></g>
  </g>
</svg>
