<svg xmlns="http://www.w3.org/2000/svg" viewBox="0 0 516.82 120" width="516.82" height="120" role="img" aria-label="CivCentral - Interlock lockup">
  <title>CivCentral - Interlock lockup</title>
  <defs>
    <linearGradient id="i-a" x1="0" y1="0" x2="0.6" y2="1">
      <stop offset="0" stop-color="#4ADE80"/><stop offset="0.6" stop-color="#10B981"/><stop offset="1" stop-color="#047857"/>
    </linearGradient>
    <linearGradient id="i-b" x1="0.2" y1="0" x2="1" y2="1">
      <stop offset="0" stop-color="#FBBF24"/><stop offset="0.45" stop-color="#F59E0B"/><stop offset="1" stop-color="#B45309"/>
    </linearGradient>
    <clipPath id="i-low"><rect x="0" y="58" width="140" height="62"/></clipPath>
    <clipPath id="i-top"><rect x="0" y="0" width="140" height="58"/></clipPath>
    <mask id="i-m1"><rect width="140" height="120" fill="#fff"/><g clip-path="url(#i-top)"><path d="M127.55 75.84 A38 38 0 1 1 127.55 40.16 L112.54 48.14 A21 21 0 1 0 112.54 67.86 Z" fill="#000" stroke="#000" stroke-width="9"/></g></mask>
    <mask id="i-m2"><rect width="140" height="120" fill="#fff"/><g clip-path="url(#i-low)"><path d="M79.55 75.84 A38 38 0 1 1 79.55 40.16 L64.54 48.14 A21 21 0 1 0 64.54 67.86 Z" fill="#000" stroke="#000" stroke-width="9"/></g></mask>
  </defs>
  
  <path d="M79.55 75.84 A38 38 0 1 1 79.55 40.16 L64.54 48.14 A21 21 0 1 0 64.54 67.86 Z" fill="url(#i-a)"/>
  <g clip-path="url(#i-top)"><path d="M127.55 75.84 A38 38 0 1 1 127.55 40.16 L112.54 48.14 A21 21 0 1 0 112.54 67.86 Z" fill="#065F46" opacity="0.4" transform="translate(-3 3)"/></g>
  <path d="M127.55 75.84 A38 38 0 1 1 127.55 40.16 L112.54 48.14 A21 21 0 1 0 112.54 67.86 Z" fill="url(#i-b)"/>
  <g clip-path="url(#i-low)">
    <path d="M79.55 75.84 A38 38 0 1 1 79.55 40.16 L64.54 48.14 A21 21 0 1 0 64.54 67.86 Z" fill="#B45309" opacity="0.35" transform="translate(3 -3)"/>
    <path d="M79.55 75.84 A38 38 0 1 1 79.55 40.16 L64.54 48.14 A21 21 0 1 0 64.54 67.86 Z" fill="url(#i-a)"/>
  </g>
  <g transform="translate(166 39) scale(0.42)">
    <clipPath id="04-interlock-lockup-ct"><rect x="-4" y="0" width="829" height="100"/></clipPath>
    <clipPath id="04-interlock-lockup-cc"><rect x="-4" y="0" width="829" height="100"/></clipPath>
    
    <g clip-path="url(#04-interlock-lockup-cc)"><path d="M65 11 L27 11 L11 27 L11 73 L27 89 L65 89" transform="translate(0 0)" stroke="#10B981" stroke-width="22" fill="none" stroke-linecap="butt" stroke-linejoin="miter" stroke-miterlimit="10"/><path d="M11 0 L11 100" transform="translate(92 0)" stroke="#10B981" stroke-width="22" fill="none" stroke-linecap="butt" stroke-linejoin="miter" stroke-miterlimit="10"/><path d="M5.2 -19.1 L38 89 L70.8 -19.1" transform="translate(130 0)" stroke="#10B981" stroke-width="22" fill="none" stroke-linecap="butt" stroke-linejoin="miter" stroke-miterlimit="10"/><path d="M65 11 L27 11 L11 27 L11 73 L27 89 L65 89" transform="translate(214 0)" stroke="#0F172A" stroke-width="22" fill="none" stroke-linecap="butt" stroke-linejoin="miter" stroke-miterlimit="10"/><path d="M63 11 L11 11 L11 89 L63 89 M11 50 L54 50" transform="translate(303 0)" stroke="#0F172A" stroke-width="22" fill="none" stroke-linecap="butt" stroke-linejoin="miter" stroke-miterlimit="10"/><path d="M11 0 L11 100 M11 0 L67 100 M67 0 L67 100" transform="translate(391 0)" stroke="#0F172A" stroke-width="22" fill="none" stroke-linecap="butt" stroke-linejoin="miter" stroke-miterlimit="10"/><path d="M4 11 L72 11 M38 11 L38 100" transform="translate(481 0)" stroke="#0F172A" stroke-width="22" fill="none" stroke-linecap="butt" stroke-linejoin="miter" stroke-miterlimit="10"/><path d="M11 100 L11 11 L40 11 L56 27 L56 39 L40 55 L11 55 M36 55 L69.4 117.6" transform="translate(565 0)" stroke="#0F172A" stroke-width="22" fill="none" stroke-linecap="butt" stroke-linejoin="miter" stroke-miterlimit="10"/><path d="M4.73 119 L44 0 L83.27 119 M25 76 L63 76" transform="translate(649 0)" stroke="#0F172A" stroke-width="22" fill="none" stroke-linecap="butt" stroke-linejoin="miter" stroke-miterlimit="10"/><path d="M11 0 L11 89 L59 89" transform="translate(751 0)" stroke="#0F172A" stroke-width="22" fill="none" stroke-linecap="butt" stroke-linejoin="miter" stroke-miterlimit="10"/></g>
  </g>
</svg>
