<svg xmlns="http://www.w3.org/2000/svg" viewBox="0 0 120 120" width="120" height="120" role="img" aria-label="CivCentral - Standard icon">
  <title>CivCentral - Standard icon</title>
  <defs>
    <linearGradient id="s-cloth" x1="0" y1="0" x2="1" y2="0">
      <stop offset="0" stop-color="#047857"/><stop offset="0.12" stop-color="#10B981"/>
      <stop offset="0.28" stop-color="#047857"/><stop offset="0.42" stop-color="#10B981"/>
      <stop offset="0.5" stop-color="#4ADE80"/><stop offset="0.6" stop-color="#10B981"/>
      <stop offset="0.74" stop-color="#047857"/><stop offset="0.88" stop-color="#10B981"/>
      <stop offset="1" stop-color="#065F46"/>
    </linearGradient>
    <linearGradient id="s-rod" x1="0" y1="0" x2="0" y2="1">
      <stop offset="0" stop-color="#FDE68A"/><stop offset="0.5" stop-color="#FBBF24"/><stop offset="1" stop-color="#B45309"/>
    </linearGradient>
    <linearGradient id="s-shade" x1="0" y1="0" x2="0" y2="1">
      <stop offset="0" stop-color="#00110C" stop-opacity="0.45"/><stop offset="1" stop-color="#00110C" stop-opacity="0"/>
    </linearGradient>
    <clipPath id="s-clip"><path d="M28 25 H92 V100 L60 82 L28 100 Z"/></clipPath>
    <mask id="s-mask"><rect width="120" height="120" fill="#fff"/><g transform="translate(44.4 33.5) scale(0.48)"><path d="M65 11 L27 11 L11 27 L11 73 L27 89 L65 89" stroke="#000" stroke-width="22" fill="none" stroke-linejoin="miter" stroke-miterlimit="10"/></g></mask>
  </defs>

  <path d="M28 25 H92 V100 L60 82 L28 100 Z" transform="translate(3 4)" fill="#0F172A" opacity="0.16"/>
  <path d="M28 25 H92 V100 L60 82 L28 100 Z" fill="url(#s-cloth)" mask="url(#s-mask)"/>
  <g clip-path="url(#s-clip)"><rect x="28" y="25" width="64" height="15" fill="url(#s-shade)"/></g>
  <rect x="14" y="16" width="92" height="9" rx="4.5" fill="url(#s-rod)"/>
  <circle cx="14" cy="20.5" r="6.5" fill="url(#s-rod)"/>
  <circle cx="106" cy="20.5" r="6.5" fill="url(#s-rod)"/>
  <circle cx="11.6" cy="18.2" r="1.9" fill="#FDE68A" opacity="0.9"/>
</svg>
